<?xml version="1.0" encoding="utf-8"?>
<!-- Generator: Adobe Illustrator 28.1.0, SVG Export Plug-In . SVG Version: 6.00 Build 0)  -->
<svg version="1.1" id="Layer_1" xmlns="http://www.w3.org/2000/svg" xmlns:xlink="http://www.w3.org/1999/xlink" x="0px" y="0px"
	 viewBox="0 0 426.4 180.4" style="enable-background:new 0 0 426.4 180.4;" xml:space="preserve">
<style type="text/css">
	.st0{fill:#1B1B1B;}
</style>
<g>
	<path class="st0" d="M7.2,6.7h35.4c9,0,31.1,0,31.1,15.3c0,6.1-4.1,10.6-10.9,12.4C70.3,36,75.1,40.8,75.1,47
		c0,15.9-22.4,15.9-31.9,15.9h-36V6.7z M28.8,20.5v8.3H44c4.1,0,8.7,0,8.7-4.1c0-4.2-4.6-4.2-8.7-4.2H28.8z M28.8,40.7V49h15.5
		c4.1,0,8.9,0,8.9-4.2c0-4.1-4.8-4.1-8.9-4.1H28.8z"/>
	<path class="st0" d="M102.9,6.7h27.4l23.9,56.2h-22.4l-2.1-5.3h-26.6l-2.1,5.3H78.8L102.9,6.7z M124.8,44.7l-8.2-21.6l-8.4,21.6
		H124.8z"/>
	<path class="st0" d="M209.3,6.7v14h-18.4v42.1h-21.6V20.7h-18.4v-14H209.3z"/>
	<path class="st0" d="M273.7,6.7v14h-18.4v42.1h-21.6V20.7h-18.4v-14H273.7z"/>
	<path class="st0" d="M340,6.7v13.9h-36.8V28h27.6v13.2h-27.6v7.7H340v13.9h-58.3V6.7H340z"/>
	<path class="st0" d="M348.1,6.7h24.9c17.4,0,43.3,0,43.3,20.1c0,10.4-7.1,15.3-16.3,17.8l18.7,18.3H394L378.7,47
		c-2.4,0-4.6,0-6.7,0h-2.4v15.9h-21.6V6.7z M369.6,20.5V34h9.4c8.1,0,15.1,0,15.1-6.8c0-6.7-7.5-6.7-15.1-6.7H369.6z"/>
	<path class="st0" d="M182.8,71v9.2h-12.1v27.6h-14.1V80.2h-12.1V71H182.8z"/>
	<path class="st0" d="M203.4,71v13.4h16V71h14.1v36.8h-14.1V93.6h-16v14.2h-14.1V71H203.4z"/>
	<path class="st0" d="M278.2,71v9.1h-24.1V85h18.1v8.6h-18.1v5h24.1v9.1H240V71H278.2z"/>
	<path class="st0" d="M60.7,115.7h21.7c11.7,0,46.5,0,46.5,27.8c0,28.4-33,28.4-45.3,28.4H60.7V115.7z M82.3,129.6v28.3h1.6
		c10.5,0,22.8,0,22.8-14.5c0-13.8-14-13.8-23.9-13.8H82.3z"/>
	<path class="st0" d="M138.1,115.7h24.9c17.4,0,43.3,0,43.3,20.1c0,10.4-7.1,15.3-16.3,17.8l18.7,18.3H184L168.7,156
		c-2.4,0-4.6,0-6.7,0h-2.4v15.9h-21.6V115.7z M159.6,129.5V143h9.4c8.1,0,15.1,0,15.1-6.8c0-6.7-7.5-6.7-15.1-6.7H159.6z"/>
	<path class="st0" d="M239.2,115.7h27.4l23.9,56.2h-22.4l-2.1-5.3h-26.6l-2.1,5.3h-22.4L239.2,115.7z M261,153.7l-8.2-21.6
		l-8.4,21.6H261z"/>
	<path class="st0" d="M293.9,144c0-17.7,16-29.1,41.4-29.1c10.3,0,18.6,1.8,25.2,5.2l-10.8,12.1c-3.8-1.8-9-3-14.3-3
		c-12,0-19.3,5.4-19.3,15c0,9,7.1,14.2,18.4,14.2c2.4,0,4.3-0.2,6-0.5v-7.5h-9.2v-12.9h30.8v29c-6.7,4-16.3,6.2-27.7,6.2
		C309.5,172.6,293.9,161.8,293.9,144z"/>
</g>
</svg>
